# xmcd
#
# Track frame offsets:
#	150
#	21002
#	29525
#	47307
#	57700
#	68977
#	81482
#	95587
#	104862
#	114347
#	126425
#	140812
#
# Disc length: 2172
#
# Revision: 1
# Processed by: cddbd v1.5.1PL0 Copyright (c) Steve Scherf et al.
# Submitted via: dBpowerAMP V4.0
# Normalized: r0:TDELIM( - )
#
DISCID=b6087a0c
DTITLE=Various Artist - Home For The Holidays
DYEAR=1996
DGENRE=Christmas
TTITLE0=Vince Gill - Do You Hear What I Hear?
TTITLE1=Willie Nelson - Here Comes Santa Claus
TTITLE2=Rosanne Cash - It Came Upon a Midnight Clear
TTITLE3=George Jones - Jingle Bells
TTITLE4=Tammy Wynette - Let's Put The Christ Back In Christmas
TTITLE5=Joe Diffie - Let it snow, Let it snow
TTITLE6=Ricky Van Shelton - Silver Bells
TTITLE7=Lynn Anderson - Rockin' Around The Christmas Tree
TTITLE8=Johnny Cash - Joy To The World
TTITLE9=Doug Stone - Santa's Flying A 747 Tonight
TTITLE10=Barbara Mandrell - It Must Have Been The Mistletoe
TTITLE11=Ricky Skaggs - O Come All Ye Faithful
EXTD=Home for the Holidays
EXTT0=
EXTT1=
EXTT2=
EXTT3=
EXTT4=
EXTT5=
EXTT6=
EXTT7=
EXTT8=
EXTT9=
EXTT10=
EXTT11=
PLAYORDER=
